<svg xmlns="http://www.w3.org/2000/svg" width="800" height="600" fill="none" viewBox="0 0 800 600"><g filter="url(#filter0_bd)"><path fill="#FFF500" d="M169.353 107.866V381.617L222.054 401.307V157.408L336.126 277.452L433.522 157.408V290.155L525.58 201.233H490.224V166.935H588.287V266.654H549.596V227.275L433.522 344.143V490.229L490.224 515V332.075H661V85H433.522L332.124 205.679L222.054 85H138L169.353 107.866Z"/><path fill="url(#paint0_linear)" d="M169.353 107.866V381.617L222.054 401.307V157.408L336.126 277.452L433.522 157.408V290.155L525.58 201.233H490.224V166.935H588.287V266.654H549.596V227.275L433.522 344.143V490.229L490.224 515V332.075H661V85H433.522L332.124 205.679L222.054 85H138L169.353 107.866Z"/><path stroke="#fff" d="M169.353 107.866V381.617L222.054 401.307V157.408L336.126 277.452L433.522 157.408V290.155L525.58 201.233H490.224V166.935H588.287V266.654H549.596V227.275L433.522 344.143V490.229L490.224 515V332.075H661V85H433.522L332.124 205.679L222.054 85H138L169.353 107.866Z"/></g><defs><filter id="filter0_bd" width="533.034" height="443.264" x="132.466" y="80.5" color-interpolation-filters="sRGB" filterUnits="userSpaceOnUse"><feFlood flood-opacity="0" result="BackgroundImageFix"/><feGaussianBlur in="BackgroundImage" stdDeviation="2"/><feComposite in2="SourceAlpha" operator="in" result="effect1_backgroundBlur"/><feColorMatrix in="SourceAlpha" type="matrix" values="0 0 0 0 0 0 0 0 0 0 0 0 0 0 0 0 0 0 127 0"/><feOffset dy="4"/><feGaussianBlur stdDeviation="2"/><feColorMatrix type="matrix" values="0 0 0 0 0 0 0 0 0 0 0 0 0 0 0 0 0 0 0.25 0"/><feBlend in2="effect1_backgroundBlur" mode="normal" result="effect2_dropShadow"/><feBlend in="SourceGraphic" in2="effect2_dropShadow" mode="normal" result="shape"/></filter><linearGradient id="paint0_linear" x1="399.5" x2="399.5" y1="85" y2="515" gradientUnits="userSpaceOnUse"><stop stop-color="#FD0000"/><stop offset="1" stop-color="#fff" stop-opacity="0"/></linearGradient></defs></svg>