<svg xmlns="http://www.w3.org/2000/svg" width="1323" height="250" fill="none" viewBox="0 0 1323 250"><rect width="34.061" height="18.518" x="120.915" y="23.148" fill="#E6E8EB" fill-opacity=".25" rx="9.259"/><rect width="17.03" height="18.518" y="23.148" fill="#E6E8EB" fill-opacity=".25" rx="8.515"/><rect width="28.1" height="18.518" x="311.655" y="69.444" fill="#E6E8EB" fill-opacity=".25" rx="9.259"/><rect width="39.17" height="18.518" x="46.833" y="138.889" fill="#E6E8EB" fill-opacity=".25" rx="9.259"/><rect width="30.655" height="18.518" y="162.037" fill="#E6E8EB" fill-opacity=".25" rx="9.259"/><rect width="18.733" height="18.518" x="321.022" y="46.296" fill="#E6E8EB" fill-opacity=".25" rx="9.259"/><rect width="18.733" height="18.518" x="640.341" y="92.593" fill="#E6E8EB" fill-opacity=".25" rx="9.259"/><rect width="18.733" height="18.518" x="445.343" y="23.148" fill="#E6E8EB" fill-opacity=".25" rx="9.259"/><rect width="18.733" height="18.518" x="445.343" y="46.296" fill="#E6E8EB" fill-opacity=".25" rx="9.259"/><rect width="18.733" height="18.518" x="445.343" y="69.444" fill="#E6E8EB" fill-opacity=".25" rx="9.259"/><rect width="18.733" height="18.518" x="445.343" y="92.593" fill="#E6E8EB" fill-opacity=".25" rx="9.259"/><rect width="18.733" height="18.518" x="445.343" y="115.741" fill="#E6E8EB" fill-opacity=".25" rx="9.259"/><rect width="18.733" height="18.518" x="445.343" y="138.889" fill="#E6E8EB" fill-opacity=".25" rx="9.259"/><rect width="18.733" height="18.518" x="445.343" y="162.037" fill="#E6E8EB" fill-opacity=".25" rx="9.259"/><rect width="14.476" height="18.518" x="567.11" y="162.037" fill="#E6E8EB" fill-opacity=".25" rx="7.238"/><rect width="14.476" height="18.518" x="718.68" y="162.037" fill="#E6E8EB" fill-opacity=".25" rx="7.238"/><rect width="18.733" height="18.518" x="445.343" y="185.185" fill="#E6E8EB" fill-opacity=".25" rx="9.259"/><rect width="28.952" height="18.518" x="567.11" y="185.185" fill="#E6E8EB" fill-opacity=".25" rx="9.259"/><rect width="28.952" height="18.518" x="657.371" y="46.296" fill="#E6E8EB" fill-opacity=".25" rx="9.259"/><rect width="46.833" height="18.518" x="625.014" y="69.444" fill="#E6E8EB" fill-opacity=".25" rx="9.259"/><rect width="43.427" height="18.518" x="605.429" y="46.296" fill="#E6E8EB" fill-opacity=".25" rx="9.259"/><rect width="63.012" height="18.518" x="842.15" y="46.296" fill="#E6E8EB" fill-opacity=".25" rx="9.259"/><rect width="43.427" height="18.518" x="842.15" y="23.148" fill="#E6E8EB" fill-opacity=".25" rx="9.259"/><rect width="74.933" height="18.518" x="894.093" y="23.148" fill="#E6E8EB" fill-opacity=".25" rx="9.259"/><rect width="71.527" height="18.518" x="969.026" y="185.185" fill="#E6E8EB" fill-opacity=".25" rx="9.259"/><rect width="46.833" height="18.518" x="981.799" y="162.037" fill="#E6E8EB" fill-opacity=".25" rx="9.259"/><rect width="24.694" height="18.518" x="990.314" y="138.889" fill="#E6E8EB" fill-opacity=".25" rx="9.259"/><rect width="97.924" height="18.518" x="957.957" y="208.333" fill="#E6E8EB" fill-opacity=".25" rx="9.259"/><rect width="88.558" height="18.518" x="1078.87" y="69.444" fill="#E6E8EB" fill-opacity=".25" rx="9.259"/><rect width="62.161" height="18.518" x="1105.27" y="46.296" fill="#E6E8EB" fill-opacity=".25" rx="9.259"/><rect width="71.527" height="18.518" x="1095.9" y="92.593" fill="#E6E8EB" fill-opacity=".25" rx="9.259"/><rect width="45.982" height="18.518" x="1273.02" y="162.037" fill="#E6E8EB" fill-opacity=".25" rx="9.259"/><rect width="45.982" height="18.518" x="1273.02" y="138.889" fill="#E6E8EB" fill-opacity=".25" rx="9.259"/><rect width="45.982" height="18.518" x="1273.02" y="115.741" fill="#E6E8EB" fill-opacity=".25" rx="9.259"/><rect width="45.982" height="18.518" x="1273.02" y="46.296" fill="#E6E8EB" fill-opacity=".25" rx="9.259"/><rect width="45.982" height="18.518" x="1273.02" y="23.148" fill="#E6E8EB" fill-opacity=".25" rx="9.259"/><rect width="45.982" height="18.518" x="1273.02" y="92.593" fill="#E6E8EB" fill-opacity=".25" rx="9.259"/><rect width="45.982" height="18.518" x="1273.02" y="69.444" fill="#E6E8EB" fill-opacity=".25" rx="9.259"/><rect width="32.358" height="18.518" x="1135.07" y="138.889" fill="#E6E8EB" fill-opacity=".25" rx="9.259"/><rect width="22.139" height="18.518" x="1145.29" y="23.148" fill="#E6E8EB" fill-opacity=".25" rx="9.259"/><rect width="19.585" height="18.518" x="1147.85" y="185.185" fill="#E6E8EB" fill-opacity=".25" rx="9.259"/><rect width="27.248" height="18.518" x="1140.18" y="162.037" fill="#E6E8EB" fill-opacity=".25" rx="9.259"/><rect width="88.558" height="18.518" x="1043.96" y="23.148" fill="#E6E8EB" fill-opacity=".25" rx="9.259"/><rect width="37.467" height="18.518" x="1058.44" y="46.296" fill="#E6E8EB" fill-opacity=".25" rx="9.259"/><rect width="54.497" height="18.518" x="1112.93" y="115.741" fill="#E6E8EB" fill-opacity=".25" rx="9.259"/><rect width="25.546" height="18.518" x="918.787" y="46.296" fill="#E6E8EB" fill-opacity=".25" rx="9.259"/><rect width="58.755" height="18.518" x="870.25" y="69.444" fill="#E6E8EB" fill-opacity=".25" rx="9.259"/><rect width="18.733" height="18.518" x="842.15" y="69.444" fill="#E6E8EB" fill-opacity=".25" rx="9.259"/><rect width="68.121" height="18.518" x="842.15" y="92.593" fill="#E6E8EB" fill-opacity=".25" rx="9.259"/><rect width="51.943" height="18.518" x="842.15" y="115.741" fill="#E6E8EB" fill-opacity=".25" rx="9.259"/><rect width="40.873" height="18.518" x="839.596" y="138.889" fill="#E6E8EB" fill-opacity=".25" rx="9.259"/><rect width="30.655" height="18.518" x="839.596" y="162.037" fill="#E6E8EB" fill-opacity=".25" rx="9.259"/><rect width="21.288" height="18.518" x="837.041" y="185.185" fill="#E6E8EB" fill-opacity=".25" rx="9.259"/><rect width="9.367" height="18.518" x="837.041" y="208.333" fill="#E6E8EB" fill-opacity=".25" rx="4.683"/><rect width="46.833" height="18.518" x="594.359" y="23.148" fill="#E6E8EB" fill-opacity=".25" rx="9.259"/><rect width="46.833" height="18.518" x="656.52" y="23.148" fill="#E6E8EB" fill-opacity=".25" rx="9.259"/><rect width="28.952" height="18.518" x="707.611" y="185.185" fill="#E6E8EB" fill-opacity=".25" rx="9.259"/><rect width="47.685" height="18.518" x="566.259" y="208.333" fill="#E6E8EB" fill-opacity=".25" rx="9.259"/><rect width="56.2" height="18.518" x="681.214" y="208.333" fill="#E6E8EB" fill-opacity=".25" rx="9.259"/><rect width="18.733" height="18.518" x="445.343" y="208.333" fill="#E6E8EB" fill-opacity=".25" rx="9.259"/><rect width="10.218" height="18.518" x="332.943" y="23.148" fill="#E6E8EB" fill-opacity=".25" rx="5.109"/><rect width="62.161" height="18.518" x="164.343" y="23.148" fill="#E6E8EB" fill-opacity=".25" rx="9.259"/><rect width="46.833" height="18.518" y="69.444" fill="#E6E8EB" fill-opacity=".25" rx="9.259"/><rect width="70.676" height="18.518" y="115.741" fill="#E6E8EB" fill-opacity=".25" rx="9.259"/><rect width="63.864" height="18.518" x="39.17" y="162.037" fill="#E6E8EB" fill-opacity=".25" rx="9.259"/><rect width="51.943" height="18.518" y="208.333" fill="#E6E8EB" fill-opacity=".25" rx="9.259"/><rect width="68.121" height="18.518" y="231.481" fill="#E6E8EB" fill-opacity=".25" rx="9.259"/><rect width="68.121" height="18.518" fill="#E6E8EB" fill-opacity=".25" rx="9.259"/><rect width="85.152" height="18.518" x="364.449" fill="#E6E8EB" fill-opacity=".25" rx="9.259"/><rect width="85.152" height="18.518" x="364.449" y="231.481" fill="#E6E8EB" fill-opacity=".25" rx="9.259"/><rect width="85.152" height="18.518" x="745.929" y="231.481" fill="#E6E8EB" fill-opacity=".25" rx="9.259"/><rect width="85.152" height="18.518" x="745.929" fill="#E6E8EB" fill-opacity=".25" rx="9.259"/><rect width="85.152" height="18.518" x="173.709" y="231.481" fill="#E6E8EB" fill-opacity=".25" rx="9.259"/><rect width="85.152" height="18.518" x="173.709" fill="#E6E8EB" fill-opacity=".25" rx="9.259"/><rect width="85.152" height="18.518" x="555.189" fill="#E6E8EB" fill-opacity=".25" rx="9.259"/><rect width="85.152" height="18.518" x="555.189" y="231.481" fill="#E6E8EB" fill-opacity=".25" rx="9.259"/><rect width="85.152" height="18.518" x="936.669" y="231.481" fill="#E6E8EB" fill-opacity=".25" rx="9.259"/><rect width="85.152" height="18.518" x="936.669" fill="#E6E8EB" fill-opacity=".25" rx="9.259"/><rect width="91.112" height="18.518" x="1132.52" fill="#E6E8EB" fill-opacity=".25" rx="9.259"/><rect width="95.37" height="18.518" x="1128.26" y="231.481" fill="#E6E8EB" fill-opacity=".25" rx="9.259"/><rect width="85.152" height="18.518" x="78.34" y="231.481" fill="#E6E8EB" fill-opacity=".25" rx="9.259"/><rect width="85.152" height="18.518" x="78.34" fill="#E6E8EB" fill-opacity=".25" rx="9.259"/><rect width="85.152" height="18.518" x="459.819" fill="#E6E8EB" fill-opacity=".25" rx="9.259"/><rect width="85.152" height="18.518" x="459.819" y="231.481" fill="#E6E8EB" fill-opacity=".25" rx="9.259"/><rect width="85.152" height="18.518" x="841.299" y="231.481" fill="#E6E8EB" fill-opacity=".25" rx="9.259"/><rect width="85.152" height="18.518" x="841.299" fill="#E6E8EB" fill-opacity=".25" rx="9.259"/><rect width="85.152" height="18.518" x="269.079" y="231.481" fill="#E6E8EB" fill-opacity=".25" rx="9.259"/><rect width="85.152" height="18.518" x="269.079" fill="#E6E8EB" fill-opacity=".25" rx="9.259"/><rect width="85.152" height="18.518" x="650.559" fill="#E6E8EB" fill-opacity=".25" rx="9.259"/><rect width="85.152" height="18.518" x="650.559" y="231.481" fill="#E6E8EB" fill-opacity=".25" rx="9.259"/><rect width="85.152" height="18.518" x="1032.04" y="231.481" fill="#E6E8EB" fill-opacity=".25" rx="9.259"/><rect width="85.152" height="18.518" x="1032.04" fill="#E6E8EB" fill-opacity=".25" rx="9.259"/><rect width="85.152" height="18.518" x="1233.85" fill="#E6E8EB" fill-opacity=".25" rx="9.259"/><rect width="85.152" height="18.518" x="1233.85" y="231.481" fill="#E6E8EB" fill-opacity=".25" rx="9.259"/><rect width="66.418" height="18.518" y="185.185" fill="#E6E8EB" fill-opacity=".25" rx="9.259"/><rect width="40.021" height="18.518" x="75.785" y="185.185" fill="#E6E8EB" fill-opacity=".25" rx="9.259"/><rect width="35.764" height="18.518" x="269.079" y="138.889" fill="#E6E8EB" fill-opacity=".25" rx="9.259"/><rect width="17.882" height="18.518" x="321.022" y="138.889" fill="#E6E8EB" fill-opacity=".25" rx="8.941"/><rect width="70.676" height="18.518" x="62.161" y="208.333" fill="#E6E8EB" fill-opacity=".25" rx="9.259"/><rect width="70.676" height="18.518" x="212.028" y="208.333" fill="#E6E8EB" fill-opacity=".25" rx="9.259"/><rect width="42.576" height="18.518" x="296.328" y="208.333" fill="#E6E8EB" fill-opacity=".25" rx="9.259"/><rect width="22.991" height="18.518" x="228.207" y="185.185" fill="#E6E8EB" fill-opacity=".25" rx="9.259"/><rect width="70.676" height="18.518" x="268.228" y="185.185" fill="#E6E8EB" fill-opacity=".25" rx="9.259"/><rect width="87.706" height="18.518" x="251.198" y="162.037" fill="#E6E8EB" fill-opacity=".25" rx="9.259"/><rect width="53.646" height="18.518" x="286.11" y="115.741" fill="#E6E8EB" fill-opacity=".25" rx="9.259"/><rect width="61.309" height="18.518" y="92.593" fill="#E6E8EB" fill-opacity=".25" rx="9.259"/><rect width="43.427" height="18.518" x="296.328" y="92.593" fill="#E6E8EB" fill-opacity=".25" rx="9.259"/><rect width="32.358" height="18.518" y="46.296" fill="#E6E8EB" fill-opacity=".25" rx="9.259"/><rect width="39.17" height="18.518" y="138.889" fill="#E6E8EB" fill-opacity=".25" rx="9.259"/><rect width="34.061" height="18.518" x="130.282" y="46.296" fill="#E6E8EB" fill-opacity=".25" rx="9.259"/><rect width="40.873" height="18.518" x="171.155" y="46.296" fill="#E6E8EB" fill-opacity=".25" rx="9.259"/><rect width="54.497" height="18.518" x="150.719" y="69.444" fill="#E6E8EB" fill-opacity=".25" rx="9.259"/><rect width="32.358" height="18.518" x="160.085" y="92.593" fill="#E6E8EB" fill-opacity=".25" rx="9.259"/><g filter="url(#filter0_d)"><rect width="85.152" height="18.518" x="349.974" y="208.333" fill="#4C1" rx="9.259"/><rect width="34.061" height="18.518" x="349.974" y="46.296" fill="#47B5B8" rx="9.259"/><rect width="34.061" height="18.518" x="349.974" y="138.889" fill="#7000FF" rx="9.259"/><rect width="56.2" height="18.518" x="349.974" y="92.593" fill="#4C1" rx="9.259"/><rect width="56.2" height="18.518" x="349.974" y="185.185" fill="#F24C42" rx="9.259"/><rect width="42.576" height="18.518" x="392.549" y="46.296" fill="#EE499B" rx="9.259"/><rect width="42.576" height="18.518" x="392.549" y="138.889" fill="#F8C300" rx="9.259"/><rect width="22.139" height="18.518" x="412.986" y="92.593" fill="#7000FF" rx="9.259"/><rect width="22.139" height="18.518" x="412.986" y="185.185" fill="#47B5B8" rx="9.259"/><rect width="85.152" height="18.518" x="349.974" y="23.148" fill="#F8C300" rx="9.259"/><rect width="85.152" height="18.518" x="349.974" y="115.741" fill="#47B5B8" rx="9.259"/><rect width="85.152" height="18.518" x="349.974" y="69.444" fill="#F24C42" rx="9.259"/><rect width="85.152" height="18.518" x="349.974" y="162.037" fill="#C56DBD" rx="9.259"/></g><g filter="url(#filter1_d)"><rect width="42.576" height="18.518" x="1176.8" y="208.333" fill="#C56DBD" rx="9.259"/><rect width="34.061" height="18.518" x="1176.8" y="46.296" fill="#EE499B" rx="9.259"/><rect width="34.061" height="18.518" x="1176.8" y="138.889" fill="#EE499B" rx="9.259"/><rect width="56.2" height="18.518" x="1176.8" y="92.593" fill="#F8C300" rx="9.259"/><rect width="63.012" height="18.518" x="1176.8" y="185.185" fill="#4C1" rx="9.259"/><rect width="42.576" height="18.518" x="1219.37" y="46.296" fill="#7000FF" rx="9.259"/><rect width="42.576" height="18.518" x="1219.37" y="138.889" fill="#7000FF" rx="9.259"/><rect width="22.139" height="18.518" x="1239.81" y="92.593" fill="#4C1" rx="9.259"/><rect width="68.973" height="18.518" x="1250.03" y="185.185" fill="#47B5B8" rx="9.259"/><rect width="85.152" height="18.518" x="1176.8" y="23.148" fill="#F24C42" rx="9.259"/><rect width="85.152" height="18.518" x="1176.8" y="115.741" fill="#47B5B8" rx="9.259"/><rect width="85.152" height="18.518" x="1176.8" y="69.444" fill="#C56DBD" rx="9.259"/><rect width="85.152" height="18.518" x="1176.8" y="162.037" fill="#F24C42" rx="9.259"/><rect width="89.409" height="18.518" x="1229.59" y="208.333" fill="#F8C300" rx="9.259"/></g><g filter="url(#filter2_d)"><rect width="85.152" height="18.518" x="183.928" y="115.741" fill="#4C1" rx="9.259"/><rect width="85.152" height="18.518" x="132.837" y="185.185" fill="#F24C42" rx="9.259"/><rect width="34.061" height="18.518" x="39.17" y="46.296" fill="#7000FF" rx="9.259"/><rect width="34.061" height="18.518" x="66.418" y="92.593" fill="#4C1" rx="9.259"/><rect width="34.061" height="18.518" x="226.504" y="46.296" fill="#7000FF" rx="9.259"/><rect width="34.061" height="18.518" x="200.958" y="92.593" fill="#F24C42" rx="9.259"/><rect width="58.755" height="18.518" x="176.264" y="162.037" fill="#F8C300" rx="9.259"/><rect width="34.061" height="18.518" x="96.221" y="138.889" fill="#F24C42" rx="9.259"/><rect width="51.091" height="18.518" x="117.509" y="162.037" fill="#C56DBD" rx="9.259"/><rect width="42.576" height="18.518" x="80.894" y="46.296" fill="#F24C42" rx="9.259"/><rect width="42.576" height="18.518" x="108.143" y="92.593" fill="#EE499B" rx="9.259"/><rect width="42.576" height="18.518" x="269.079" y="46.296" fill="#C56DBD" rx="9.259"/><rect width="42.576" height="18.518" x="243.534" y="92.593" fill="#47B5B8" rx="9.259"/><rect width="42.576" height="18.518" x="154.976" y="208.333" fill="#4C1" rx="9.259"/><rect width="42.576" height="18.518" x="213.731" y="138.889" fill="#47B5B8" rx="9.259"/><rect width="85.152" height="18.518" x="26.397" y="23.148" fill="#47B5B8" rx="9.259"/><rect width="85.152" height="18.518" x="53.646" y="69.444" fill="#C56DBD" rx="9.259"/><rect width="85.152" height="18.518" x="83.449" y="115.741" fill="#47B5B8" rx="9.259"/><rect width="59.606" height="18.518" x="141.352" y="138.889" fill="#7000FF" rx="9.259"/><rect width="85.152" height="18.518" x="239.276" y="23.148" fill="#4C1" rx="9.259"/><rect width="85.152" height="18.518" x="213.731" y="69.444" fill="#F8C300" rx="9.259"/></g><g filter="url(#filter3_d)"><rect width="85.152" height="18.518" x="995.423" y="134.259" fill="#47B5B8" rx="9.259" transform="rotate(-180 995.423 134.259)"/><rect width="85.152" height="18.518" x="1046.51" y="64.815" fill="#47B5B8" rx="9.259" transform="rotate(-180 1046.51 64.8148)"/><rect width="34.061" height="18.518" x="1140.18" y="203.704" fill="#4C1" rx="9.259" transform="rotate(-180 1140.18 203.704)"/><rect width="34.061" height="18.518" x="1112.93" y="157.407" fill="#47B5B8" rx="9.259" transform="rotate(-180 1112.93 157.407)"/><rect width="34.061" height="18.518" x="952.848" y="203.704" fill="#F24C42" rx="9.259" transform="rotate(-180 952.848 203.704)"/><rect width="34.061" height="18.518" x="978.393" y="157.407" fill="#7000FF" rx="9.259" transform="rotate(-180 978.393 157.407)"/><rect width="58.755" height="18.518" x="1003.09" y="87.963" fill="#F24C42" rx="9.259" transform="rotate(-180 1003.09 87.963)"/><rect width="34.061" height="18.518" x="1083.13" y="111.111" fill="#7000FF" rx="9.259" transform="rotate(-180 1083.13 111.111)"/><rect width="51.091" height="18.518" x="1061.84" y="87.963" fill="#F8C300" rx="9.259" transform="rotate(-180 1061.84 87.963)"/><rect width="42.576" height="18.518" x="1098.46" y="203.704" fill="#F8C300" rx="9.259" transform="rotate(-180 1098.46 203.704)"/><rect width="42.576" height="18.518" x="1071.21" y="157.407" fill="#F24C42" rx="9.259" transform="rotate(-180 1071.21 157.407)"/><rect width="42.576" height="18.518" x="910.272" y="203.704" fill="#C56DBD" rx="9.259" transform="rotate(-180 910.272 203.704)"/><rect width="42.576" height="18.518" x="935.817" y="157.407" fill="#EE499B" rx="9.259" transform="rotate(-180 935.817 157.407)"/><rect width="42.576" height="18.518" x="1024.38" y="41.667" fill="#4C1" rx="9.259" transform="rotate(-180 1024.38 41.6667)"/><rect width="42.576" height="18.518" x="965.62" y="111.111" fill="#4C1" rx="9.259" transform="rotate(-180 965.62 111.111)"/><rect width="85.152" height="18.518" x="1152.95" y="226.852" fill="#47B5B8" rx="9.259" transform="rotate(-180 1152.95 226.852)"/><rect width="85.152" height="18.518" x="1125.71" y="180.556" fill="#C56DBD" rx="9.259" transform="rotate(-180 1125.71 180.556)"/><rect width="85.152" height="18.518" x="1095.9" y="134.259" fill="#4C1" rx="9.259" transform="rotate(-180 1095.9 134.259)"/><rect width="59.606" height="18.518" x="1038" y="111.111" fill="#C56DBD" rx="9.259" transform="rotate(-180 1038 111.111)"/><rect width="85.152" height="18.518" x="940.075" y="226.852" fill="#4C1" rx="9.259" transform="rotate(-180 940.075 226.852)"/><rect width="85.152" height="18.518" x="965.62" y="180.556" fill="#F8C300" rx="9.259" transform="rotate(-180 965.62 180.556)"/></g><g filter="url(#filter4_d)"><rect width="85.152" height="18.518" x="745.929" y="208.333" fill="#F24C42" rx="9.259"/><rect width="83.449" height="18.518" x="474.295" y="138.889" fill="#4C1" rx="9.259"/><rect width="85.152" height="18.518" x="656.52" y="115.741" fill="#EE499B" rx="9.259"/><rect width="85.152" height="18.518" x="605.429" y="185.185" fill="#F8C300" rx="9.259"/><rect width="34.061" height="18.518" x="504.098" y="46.296" fill="#C4C4C4" rx="9.259"/><rect width="34.061" height="18.518" x="539.01" y="92.593" fill="#7000FF" rx="9.259"/><rect width="34.061" height="18.518" x="699.096" y="46.296" fill="#F24C42" rx="9.259"/><rect width="34.061" height="18.518" x="745.929" y="46.296" fill="#C4C4C4" rx="9.259"/><rect width="34.061" height="18.518" x="745.929" y="138.889" fill="#F24C42" rx="9.259"/><rect width="39.17" height="18.518" x="474.295" y="69.444" fill="#C56DBD" rx="9.259"/><rect width="34.061" height="18.518" x="474.295" y="208.333" fill="#C56DBD" rx="9.259"/><rect width="56.2" height="18.518" x="745.929" y="92.593" fill="#7000FF" rx="9.259"/><rect width="56.2" height="18.518" x="474.295" y="23.148" fill="#F24C42" rx="9.259"/><rect width="56.2" height="18.518" x="474.295" y="162.037" fill="#7000FF" rx="9.259"/><rect width="56.2" height="18.518" x="745.929" y="185.185" fill="#4C1" rx="9.259"/><rect width="70.676" height="18.518" x="474.295" y="115.741" fill="#F24C42" rx="9.259"/><rect width="34.061" height="18.518" x="673.55" y="92.593" fill="#F8C300" rx="9.259"/><rect width="58.755" height="18.518" x="648.856" y="162.037" fill="#4C1" rx="9.259"/><rect width="34.061" height="18.518" x="568.813" y="138.889" fill="#47B5B8" rx="9.259"/><rect width="51.091" height="18.518" x="590.101" y="162.037" fill="#7000FF" rx="9.259"/><rect width="42.576" height="18.518" x="553.486" y="46.296" fill="#EE499B" rx="9.259"/><rect width="42.576" height="18.518" x="580.735" y="92.593" fill="#47B5B8" rx="9.259"/><rect width="42.576" height="18.518" x="737.414" y="46.296" fill="#47B5B8" rx="9.259"/><rect width="42.576" height="18.518" x="716.126" y="92.593" fill="#7000FF" rx="9.259"/><rect width="42.576" height="18.518" x="788.505" y="46.296" fill="#EE499B" rx="9.259"/><rect width="42.576" height="18.518" x="788.505" y="138.889" fill="#EE499B" rx="9.259"/><rect width="42.576" height="18.518" x="524.535" y="69.444" fill="#C4C4C4" rx="9.259"/><rect width="42.576" height="18.518" x="513.465" y="208.333" fill="#47B5B8" rx="9.259"/><rect width="22.139" height="18.518" x="808.941" y="92.593" fill="#F8C300" rx="9.259"/><rect width="22.139" height="18.518" x="544.971" y="23.148" fill="#C4C4C4" rx="9.259"/><rect width="22.139" height="18.518" x="533.901" y="162.037" fill="#F24C42" rx="9.259"/><rect width="22.139" height="18.518" x="808.941" y="185.185" fill="#F8C300" rx="9.259"/><rect width="42.576" height="18.518" x="627.568" y="208.333" fill="#C56DBD" rx="9.259"/><rect width="42.576" height="18.518" x="686.323" y="138.889" fill="#47B5B8" rx="9.259"/><rect width="35.764" height="18.518" x="544.971" y="23.148" fill="#47B5B8" rx="9.259"/><rect width="85.152" height="18.518" x="526.238" y="69.444" fill="#F8C300" rx="9.259"/><rect width="85.152" height="18.518" x="556.041" y="115.741" fill="#C56DBD" rx="9.259"/><rect width="57.903" height="18.518" x="773.178" y="23.148" fill="#4C1" rx="9.259"/><rect width="85.152" height="18.518" x="745.929" y="115.741" fill="#4C1" rx="9.259"/><rect width="70.676" height="18.518" x="474.295" y="46.296" fill="#4C1" rx="9.259"/><rect width="85.152" height="18.518" x="474.295" y="185.185" fill="#EE499B" rx="9.259"/><rect width="66.418" height="18.518" x="764.662" y="69.444" fill="#C56DBD" rx="9.259"/><rect width="85.152" height="18.518" x="745.929" y="162.037" fill="#47B5B8" rx="9.259"/><rect width="56.2" height="18.518" x="474.295" y="92.593" fill="#47B5B8" rx="9.259"/><rect width="59.606" height="18.518" x="613.944" y="138.889" fill="#F24C42" rx="9.259"/><rect width="42.576" height="18.518" x="716.126" y="23.148" fill="#F8C300" rx="9.259"/><rect width="69.824" height="18.518" x="682.065" y="69.444" fill="#4C1" rx="9.259"/></g><defs><filter id="filter0_d" width="93.152" height="211.704" x="345.974" y="23.148" color-interpolation-filters="sRGB" filterUnits="userSpaceOnUse"><feFlood flood-opacity="0" result="BackgroundImageFix"/><feColorMatrix in="SourceAlpha" type="matrix" values="0 0 0 0 0 0 0 0 0 0 0 0 0 0 0 0 0 0 127 0"/><feOffset dy="4"/><feGaussianBlur stdDeviation="2"/><feColorMatrix type="matrix" values="0 0 0 0 0 0 0 0 0 0 0 0 0 0 0 0 0 0 0.25 0"/><feBlend in2="BackgroundImageFix" mode="normal" result="effect1_dropShadow"/><feBlend in="SourceGraphic" in2="effect1_dropShadow" mode="normal" result="shape"/></filter><filter id="filter1_d" width="150.203" height="211.704" x="1172.8" y="23.148" color-interpolation-filters="sRGB" filterUnits="userSpaceOnUse"><feFlood flood-opacity="0" result="BackgroundImageFix"/><feColorMatrix in="SourceAlpha" type="matrix" values="0 0 0 0 0 0 0 0 0 0 0 0 0 0 0 0 0 0 127 0"/><feOffset dy="4"/><feGaussianBlur stdDeviation="2"/><feColorMatrix type="matrix" values="0 0 0 0 0 0 0 0 0 0 0 0 0 0 0 0 0 0 0.25 0"/><feBlend in2="BackgroundImageFix" mode="normal" result="effect1_dropShadow"/><feBlend in="SourceGraphic" in2="effect1_dropShadow" mode="normal" result="shape"/></filter><filter id="filter2_d" width="306.031" height="211.704" x="22.397" y="23.148" color-interpolation-filters="sRGB" filterUnits="userSpaceOnUse"><feFlood flood-opacity="0" result="BackgroundImageFix"/><feColorMatrix in="SourceAlpha" type="matrix" values="0 0 0 0 0 0 0 0 0 0 0 0 0 0 0 0 0 0 127 0"/><feOffset dy="4"/><feGaussianBlur stdDeviation="2"/><feColorMatrix type="matrix" values="0 0 0 0 0 0 0 0 0 0 0 0 0 0 0 0 0 0 0.25 0"/><feBlend in2="BackgroundImageFix" mode="normal" result="effect1_dropShadow"/><feBlend in="SourceGraphic" in2="effect1_dropShadow" mode="normal" result="shape"/></filter><filter id="filter3_d" width="306.031" height="211.704" x="850.923" y="23.148" color-interpolation-filters="sRGB" filterUnits="userSpaceOnUse"><feFlood flood-opacity="0" result="BackgroundImageFix"/><feColorMatrix in="SourceAlpha" type="matrix" values="0 0 0 0 0 0 0 0 0 0 0 0 0 0 0 0 0 0 127 0"/><feOffset dy="4"/><feGaussianBlur stdDeviation="2"/><feColorMatrix type="matrix" values="0 0 0 0 0 0 0 0 0 0 0 0 0 0 0 0 0 0 0.25 0"/><feBlend in2="BackgroundImageFix" mode="normal" result="effect1_dropShadow"/><feBlend in="SourceGraphic" in2="effect1_dropShadow" mode="normal" result="shape"/></filter><filter id="filter4_d" width="364.786" height="211.704" x="470.295" y="23.148" color-interpolation-filters="sRGB" filterUnits="userSpaceOnUse"><feFlood flood-opacity="0" result="BackgroundImageFix"/><feColorMatrix in="SourceAlpha" type="matrix" values="0 0 0 0 0 0 0 0 0 0 0 0 0 0 0 0 0 0 127 0"/><feOffset dy="4"/><feGaussianBlur stdDeviation="2"/><feColorMatrix type="matrix" values="0 0 0 0 0 0 0 0 0 0 0 0 0 0 0 0 0 0 0.25 0"/><feBlend in2="BackgroundImageFix" mode="normal" result="effect1_dropShadow"/><feBlend in="SourceGraphic" in2="effect1_dropShadow" mode="normal" result="shape"/></filter></defs></svg>